<svg xmlns="http://www.w3.org/2000/svg" width="240" height="300" viewBox="0 0 240 300">
<defs>
<linearGradient id="c" x1="0" y1="0" x2="0" y2="1"><stop offset="0" stop-color="#3b4a58"/><stop offset="1" stop-color="#121a23"/></linearGradient>
<linearGradient id="cape" x1="0" y1="0" x2="0" y2="1"><stop offset="0" stop-color="#222e39"/><stop offset="1" stop-color="#0b1118"/></linearGradient>
</defs>
<ellipse cx="120" cy="288" rx="80" ry="12" fill="#000" opacity=".5"/>
<path d="M120 40 L60 80 L52 200 L70 276 L170 276 L188 200 L180 80 Z" fill="url(#cape)"/>
<path d="M120 20 C98 20 84 38 84 60 C84 76 92 88 104 94 L98 126 C76 134 64 156 62 186 L68 276 L104 276 L106 226 L134 226 L136 276 L172 276 L178 186 C176 156 164 134 142 126 L136 94 C148 88 156 76 156 60 C156 38 142 20 120 20 Z" fill="url(#c)"/>
<path d="M96 52 L144 52 L144 66 L120 76 L96 66 Z" fill="#0c141c"/>
<rect x="100" y="56" width="40" height="7" rx="3.5" fill="#c3e8f7" opacity=".95"/>
<path d="M64 120 L44 140 L54 250 L74 236 Z" fill="#1b2733"/>
<path d="M186 70 L206 268 M172 92 L224 86" stroke="#57707f" stroke-width="9"/>
<path d="M186 70 L206 268" stroke="#9fe8ff" stroke-width="2.4" opacity=".5"/>
<circle cx="108" cy="60" r="3" fill="#eafcff"/><circle cx="132" cy="60" r="3" fill="#eafcff"/>
<ellipse cx="120" cy="270" rx="100" ry="18" fill="#8fa8b5" opacity=".12"/>
</svg>
