<svg xmlns="http://www.w3.org/2000/svg" width="200" height="250" viewBox="0 0 200 250">
<defs><linearGradient id="k" x1="0" y1="0" x2="0" y2="1"><stop offset="0" stop-color="#2b3844"/><stop offset="1" stop-color="#101820"/></linearGradient></defs>
<ellipse cx="100" cy="238" rx="62" ry="10" fill="#000" opacity=".45"/>
<path d="M100 22 C82 22 70 36 70 54 C70 66 76 76 86 82 L80 108 C62 116 52 134 50 160 L54 232 L86 232 L88 192 L112 192 L114 232 L146 232 L150 160 C148 134 138 116 120 108 L114 82 C124 76 130 66 130 54 C130 36 118 22 100 22 Z" fill="url(#k)"/>
<path d="M82 56 L118 56 L118 44 L100 34 L82 44 Z" fill="#0e161e"/>
<rect x="86" y="52" width="28" height="6" rx="3" fill="#9fe8ff" opacity=".85"/>
<path d="M30 108 L66 108 L66 168 L48 184 L30 168 Z" fill="#1a242e"/>
<path d="M48 116 L48 176 M36 132 L60 132" stroke="#9fe8ff" stroke-width="2.6" opacity=".55"/>
<path d="M152 90 L166 210 M144 106 L176 102" stroke="#465a68" stroke-width="6"/>
</svg>
