<svg xmlns="http://www.w3.org/2000/svg" width="190" height="240" viewBox="0 0 190 240">
<defs>
<linearGradient id="m" x1="0" y1="0" x2="0" y2="1"><stop offset="0" stop-color="#2a1208"/><stop offset="1" stop-color="#120704"/></linearGradient>
<linearGradient id="l" x1="0" y1="0" x2="0" y2="1"><stop offset="0" stop-color="#ffb35c"/><stop offset="1" stop-color="#ff5e1f"/></linearGradient>
</defs>
<ellipse cx="95" cy="228" rx="58" ry="10" fill="#000" opacity=".45"/>
<path d="M95 20 C70 20 55 40 56 62 C57 80 66 92 78 98 C60 110 48 132 46 160 C44 190 58 214 74 224 L116 224 C132 214 146 190 144 160 C142 132 130 110 112 98 C124 92 133 80 134 62 C135 40 120 20 95 20 Z" fill="url(#m)"/>
<path d="M74 120 Q82 150 76 180 M95 112 Q98 150 92 196 M116 120 Q112 154 118 184" stroke="url(#l)" stroke-width="5" fill="none" stroke-linecap="round" opacity=".9"/>
<circle cx="82" cy="58" r="7" fill="#ffd23e"/><circle cx="108" cy="58" r="7" fill="#ffd23e"/>
<path d="M78 80 Q95 92 112 80" stroke="#ffd23e" stroke-width="4" fill="none" opacity=".8"/>
<circle cx="60" cy="140" r="3" fill="#ffb35c" opacity=".8"/><circle cx="134" cy="150" r="3" fill="#ffb35c" opacity=".7"/><circle cx="95" cy="30" r="2.4" fill="#ffd9a0" opacity=".7"/>
</svg>
