<svg xmlns="http://www.w3.org/2000/svg" width="230" height="180" viewBox="0 0 230 180">
<defs><linearGradient id="w" x1="0" y1="0" x2="0" y2="1"><stop offset="0" stop-color="#26333e"/><stop offset="1" stop-color="#0d141b"/></linearGradient></defs>
<ellipse cx="115" cy="170" rx="80" ry="9" fill="#000" opacity=".45"/>
<path d="M28 96 C20 76 30 62 46 58 L58 34 L74 52 L94 40 L100 58 C130 52 160 60 180 80 L206 70 C216 86 212 102 200 110 L204 132 L184 128 L176 152 L156 144 L146 164 L128 152 L106 162 L96 146 L72 154 L68 132 L46 134 L48 112 C36 108 30 104 28 96 Z" fill="url(#w)"/>
<circle cx="62" cy="72" r="6" fill="#9fe8ff"/><circle cx="84" cy="66" r="5" fill="#9fe8ff"/>
<circle cx="62" cy="72" r="2.2" fill="#e8fbff"/><circle cx="84" cy="66" r="1.8" fill="#e8fbff"/>
<path d="M40 92 L58 96 M44 102 L60 102" stroke="#9fe8ff" stroke-width="2.4" opacity=".6"/>
<ellipse cx="115" cy="150" rx="90" ry="16" fill="#8fa8b5" opacity=".14"/>
</svg>
